<mxfile host="app.diagrams.net" modified="2022-02-24T05:28:17.271Z" agent="5.0 (Macintosh; Intel Mac OS X 10_15_7) AppleWebKit/537.36 (KHTML, like Gecko) Chrome/98.0.4758.80 Safari/537.36" etag="sJrzPqDjyxWjaGzRgPMl" version="16.6.1" type="github">
  <diagram id="ESBV5VYZ4I9rzLJg--ot" name="第 1 页">
    <mxGraphModel dx="1414" dy="815" grid="1" gridSize="10" guides="1" tooltips="1" connect="1" arrows="1" fold="1" page="1" pageScale="1" pageWidth="827" pageHeight="583" math="0" shadow="0">
      <root>
        <mxCell id="0" />
        <mxCell id="1" parent="0" />
        <mxCell id="a08RD-lhNpUK_SpXIpmX-28" value="" style="group;allowArrows=1;expand=1;collapsible=0;" parent="1" vertex="1" connectable="0">
          <mxGeometry x="50" y="60" width="940" height="270" as="geometry" />
        </mxCell>
        <mxCell id="a08RD-lhNpUK_SpXIpmX-25" value="BI工具" style="swimlane;dashed=1;swimlaneFillColor=#FFFFFF;collapsible=0;startSize=30;fillColor=#CCCCCC;" parent="a08RD-lhNpUK_SpXIpmX-28" vertex="1">
          <mxGeometry x="380" y="-3" width="560" height="140" as="geometry">
            <mxRectangle x="430" y="60" width="70" height="23" as="alternateBounds" />
          </mxGeometry>
        </mxCell>
        <mxCell id="a08RD-lhNpUK_SpXIpmX-19" value="报表分发" style="whiteSpace=wrap;html=1;fontColor=#ffffff;strokeColor=#314354;fillColor=#647687;" parent="a08RD-lhNpUK_SpXIpmX-25" vertex="1">
          <mxGeometry x="430" y="63" width="100" height="40" as="geometry" />
        </mxCell>
        <mxCell id="a08RD-lhNpUK_SpXIpmX-2" value="内容加工者" style="ellipse;whiteSpace=wrap;html=1;aspect=fixed;fillColor=#647687;strokeColor=#314354;fontColor=#ffffff;" parent="a08RD-lhNpUK_SpXIpmX-28" vertex="1">
          <mxGeometry y="40" width="80" height="80" as="geometry" />
        </mxCell>
        <mxCell id="a08RD-lhNpUK_SpXIpmX-3" value="内容使用者" style="ellipse;whiteSpace=wrap;html=1;aspect=fixed;fillColor=#647687;strokeColor=#314354;fontColor=#ffffff;" parent="a08RD-lhNpUK_SpXIpmX-28" vertex="1">
          <mxGeometry y="190" width="80" height="80" as="geometry" />
        </mxCell>
        <mxCell id="a08RD-lhNpUK_SpXIpmX-4" value="提出需求" style="whiteSpace=wrap;html=1;fontColor=#ffffff;strokeColor=#314354;fillColor=#647687;" parent="a08RD-lhNpUK_SpXIpmX-28" vertex="1">
          <mxGeometry x="120" y="210" width="100" height="40" as="geometry" />
        </mxCell>
        <mxCell id="a08RD-lhNpUK_SpXIpmX-5" value="" style="edgeStyle=orthogonalEdgeStyle;rounded=0;orthogonalLoop=1;jettySize=auto;html=1;" parent="a08RD-lhNpUK_SpXIpmX-28" source="a08RD-lhNpUK_SpXIpmX-3" target="a08RD-lhNpUK_SpXIpmX-4" edge="1">
          <mxGeometry relative="1" as="geometry" />
        </mxCell>
        <mxCell id="a08RD-lhNpUK_SpXIpmX-8" value="需求梳理" style="whiteSpace=wrap;html=1;fontColor=#ffffff;strokeColor=#314354;fillColor=#647687;" parent="a08RD-lhNpUK_SpXIpmX-28" vertex="1">
          <mxGeometry x="120" y="60" width="100" height="40" as="geometry" />
        </mxCell>
        <mxCell id="a08RD-lhNpUK_SpXIpmX-9" style="edgeStyle=orthogonalEdgeStyle;rounded=0;orthogonalLoop=1;jettySize=auto;html=1;exitX=1;exitY=0.5;exitDx=0;exitDy=0;" parent="a08RD-lhNpUK_SpXIpmX-28" source="a08RD-lhNpUK_SpXIpmX-2" target="a08RD-lhNpUK_SpXIpmX-8" edge="1">
          <mxGeometry relative="1" as="geometry" />
        </mxCell>
        <mxCell id="a08RD-lhNpUK_SpXIpmX-7" value="" style="edgeStyle=orthogonalEdgeStyle;rounded=0;orthogonalLoop=1;jettySize=auto;html=1;entryX=0.5;entryY=1;entryDx=0;entryDy=0;" parent="a08RD-lhNpUK_SpXIpmX-28" source="a08RD-lhNpUK_SpXIpmX-4" target="a08RD-lhNpUK_SpXIpmX-8" edge="1">
          <mxGeometry relative="1" as="geometry">
            <mxPoint x="190" y="140" as="targetPoint" />
          </mxGeometry>
        </mxCell>
        <mxCell id="a08RD-lhNpUK_SpXIpmX-10" value="数据生产" style="whiteSpace=wrap;html=1;fontColor=#ffffff;strokeColor=#314354;fillColor=#647687;" parent="a08RD-lhNpUK_SpXIpmX-28" vertex="1">
          <mxGeometry x="260" y="60" width="100" height="40" as="geometry" />
        </mxCell>
        <mxCell id="a08RD-lhNpUK_SpXIpmX-11" value="" style="edgeStyle=orthogonalEdgeStyle;rounded=0;orthogonalLoop=1;jettySize=auto;html=1;" parent="a08RD-lhNpUK_SpXIpmX-28" source="a08RD-lhNpUK_SpXIpmX-8" target="a08RD-lhNpUK_SpXIpmX-10" edge="1">
          <mxGeometry relative="1" as="geometry" />
        </mxCell>
        <mxCell id="a08RD-lhNpUK_SpXIpmX-12" value="数据接入" style="whiteSpace=wrap;html=1;fontColor=#ffffff;strokeColor=#314354;fillColor=#647687;" parent="a08RD-lhNpUK_SpXIpmX-28" vertex="1">
          <mxGeometry x="400" y="60" width="100" height="40" as="geometry" />
        </mxCell>
        <mxCell id="a08RD-lhNpUK_SpXIpmX-13" value="" style="edgeStyle=orthogonalEdgeStyle;rounded=0;orthogonalLoop=1;jettySize=auto;html=1;" parent="a08RD-lhNpUK_SpXIpmX-28" source="a08RD-lhNpUK_SpXIpmX-10" target="a08RD-lhNpUK_SpXIpmX-12" edge="1">
          <mxGeometry relative="1" as="geometry" />
        </mxCell>
        <mxCell id="a08RD-lhNpUK_SpXIpmX-14" value="数据处理" style="shape=cylinder3;whiteSpace=wrap;html=1;boundedLbl=1;backgroundOutline=1;size=15;fillColor=#ffe6cc;strokeColor=#d79b00;" parent="a08RD-lhNpUK_SpXIpmX-28" vertex="1">
          <mxGeometry x="539" y="45" width="60" height="70" as="geometry" />
        </mxCell>
        <mxCell id="a08RD-lhNpUK_SpXIpmX-18" style="edgeStyle=orthogonalEdgeStyle;rounded=0;orthogonalLoop=1;jettySize=auto;html=1;exitX=1;exitY=0.5;exitDx=0;exitDy=0;entryX=0;entryY=0.5;entryDx=0;entryDy=0;entryPerimeter=0;" parent="a08RD-lhNpUK_SpXIpmX-28" source="a08RD-lhNpUK_SpXIpmX-12" target="a08RD-lhNpUK_SpXIpmX-14" edge="1">
          <mxGeometry relative="1" as="geometry" />
        </mxCell>
        <mxCell id="a08RD-lhNpUK_SpXIpmX-20" value="" style="edgeStyle=orthogonalEdgeStyle;rounded=0;orthogonalLoop=1;jettySize=auto;html=1;" parent="a08RD-lhNpUK_SpXIpmX-28" source="a08RD-lhNpUK_SpXIpmX-15" target="a08RD-lhNpUK_SpXIpmX-19" edge="1">
          <mxGeometry relative="1" as="geometry" />
        </mxCell>
        <mxCell id="a08RD-lhNpUK_SpXIpmX-15" value="报表制作(数据分析)" style="whiteSpace=wrap;html=1;fontColor=#ffffff;strokeColor=#314354;fillColor=#647687;" parent="a08RD-lhNpUK_SpXIpmX-28" vertex="1">
          <mxGeometry x="639" y="60" width="131" height="40" as="geometry" />
        </mxCell>
        <mxCell id="a08RD-lhNpUK_SpXIpmX-16" style="edgeStyle=orthogonalEdgeStyle;rounded=0;orthogonalLoop=1;jettySize=auto;html=1;exitX=1;exitY=0.5;exitDx=0;exitDy=0;exitPerimeter=0;entryX=0;entryY=0.5;entryDx=0;entryDy=0;" parent="a08RD-lhNpUK_SpXIpmX-28" source="a08RD-lhNpUK_SpXIpmX-14" target="a08RD-lhNpUK_SpXIpmX-15" edge="1">
          <mxGeometry relative="1" as="geometry" />
        </mxCell>
        <mxCell id="a08RD-lhNpUK_SpXIpmX-21" value="查看报表" style="whiteSpace=wrap;html=1;fontColor=#ffffff;strokeColor=#314354;fillColor=#647687;" parent="a08RD-lhNpUK_SpXIpmX-28" vertex="1">
          <mxGeometry x="400" y="210" width="100" height="40" as="geometry" />
        </mxCell>
        <mxCell id="a08RD-lhNpUK_SpXIpmX-22" value="" style="edgeStyle=orthogonalEdgeStyle;rounded=0;orthogonalLoop=1;jettySize=auto;html=1;" parent="a08RD-lhNpUK_SpXIpmX-28" source="a08RD-lhNpUK_SpXIpmX-4" target="a08RD-lhNpUK_SpXIpmX-21" edge="1">
          <mxGeometry relative="1" as="geometry" />
        </mxCell>
        <mxCell id="a08RD-lhNpUK_SpXIpmX-27" style="edgeStyle=orthogonalEdgeStyle;rounded=0;orthogonalLoop=1;jettySize=auto;html=1;exitX=0.5;exitY=0;exitDx=0;exitDy=0;entryX=0.5;entryY=1;entryDx=0;entryDy=0;" parent="a08RD-lhNpUK_SpXIpmX-28" source="a08RD-lhNpUK_SpXIpmX-23" target="a08RD-lhNpUK_SpXIpmX-15" edge="1">
          <mxGeometry relative="1" as="geometry" />
        </mxCell>
        <mxCell id="a08RD-lhNpUK_SpXIpmX-23" value="使用反馈" style="whiteSpace=wrap;html=1;fontColor=#ffffff;strokeColor=#314354;fillColor=#647687;" parent="a08RD-lhNpUK_SpXIpmX-28" vertex="1">
          <mxGeometry x="655" y="210" width="100" height="40" as="geometry" />
        </mxCell>
        <mxCell id="a08RD-lhNpUK_SpXIpmX-24" value="" style="edgeStyle=orthogonalEdgeStyle;rounded=0;orthogonalLoop=1;jettySize=auto;html=1;" parent="a08RD-lhNpUK_SpXIpmX-28" source="a08RD-lhNpUK_SpXIpmX-21" target="a08RD-lhNpUK_SpXIpmX-23" edge="1">
          <mxGeometry relative="1" as="geometry" />
        </mxCell>
        <mxCell id="a08RD-lhNpUK_SpXIpmX-26" style="edgeStyle=orthogonalEdgeStyle;rounded=0;orthogonalLoop=1;jettySize=auto;html=1;exitX=0.5;exitY=1;exitDx=0;exitDy=0;entryX=0.5;entryY=1;entryDx=0;entryDy=0;" parent="a08RD-lhNpUK_SpXIpmX-28" source="a08RD-lhNpUK_SpXIpmX-19" target="a08RD-lhNpUK_SpXIpmX-21" edge="1">
          <mxGeometry relative="1" as="geometry" />
        </mxCell>
        <mxCell id="a08RD-lhNpUK_SpXIpmX-29" value="BI平台用户使用流程" style="text;html=1;align=left;verticalAlign=middle;resizable=0;points=[];autosize=1;strokeColor=none;fontSize=20;fontColor=#333333;fontStyle=1" parent="1" vertex="1">
          <mxGeometry x="60" y="25" width="200" height="30" as="geometry" />
        </mxCell>
        <mxCell id="a08RD-lhNpUK_SpXIpmX-39" value="" style="group" parent="1" vertex="1" connectable="0">
          <mxGeometry x="70" y="610" width="470" height="470" as="geometry" />
        </mxCell>
        <mxCell id="a08RD-lhNpUK_SpXIpmX-30" value="" style="whiteSpace=wrap;html=1;aspect=fixed;dashed=1;fontSize=16;align=left;strokeColor=none;fillColor=#004C99;" parent="a08RD-lhNpUK_SpXIpmX-39" vertex="1">
          <mxGeometry width="470" height="470" as="geometry" />
        </mxCell>
        <mxCell id="a08RD-lhNpUK_SpXIpmX-31" value="" style="whiteSpace=wrap;html=1;aspect=fixed;dashed=1;fontSize=16;align=left;strokeColor=none;fillColor=#0066CC;" parent="a08RD-lhNpUK_SpXIpmX-39" vertex="1">
          <mxGeometry x="90" y="90" width="380" height="380" as="geometry" />
        </mxCell>
        <mxCell id="a08RD-lhNpUK_SpXIpmX-32" value="" style="whiteSpace=wrap;html=1;aspect=fixed;dashed=1;fontSize=16;align=left;strokeColor=none;fillColor=#3399FF;" parent="a08RD-lhNpUK_SpXIpmX-39" vertex="1">
          <mxGeometry x="220" y="220" width="250" height="250" as="geometry" />
        </mxCell>
        <mxCell id="a08RD-lhNpUK_SpXIpmX-33" value="" style="whiteSpace=wrap;html=1;aspect=fixed;dashed=1;fontSize=16;align=left;strokeColor=none;fillColor=#99CCFF;" parent="a08RD-lhNpUK_SpXIpmX-39" vertex="1">
          <mxGeometry x="310" y="310" width="160" height="160" as="geometry" />
        </mxCell>
        <mxCell id="a08RD-lhNpUK_SpXIpmX-34" value="数据&lt;br style=&quot;font-size: 18px;&quot;&gt;（维度/指标）" style="text;html=1;align=center;verticalAlign=middle;resizable=0;points=[];autosize=1;strokeColor=none;fontSize=18;fontStyle=1;fontColor=#333333;" parent="a08RD-lhNpUK_SpXIpmX-39" vertex="1">
          <mxGeometry x="335" y="365" width="130" height="50" as="geometry" />
        </mxCell>
        <mxCell id="a08RD-lhNpUK_SpXIpmX-35" value="数据集" style="text;html=1;align=center;verticalAlign=middle;resizable=0;points=[];autosize=1;strokeColor=none;fontSize=18;fontStyle=1;fontColor=#FFFEFA;" parent="a08RD-lhNpUK_SpXIpmX-39" vertex="1">
          <mxGeometry x="297" y="251" width="70" height="30" as="geometry" />
        </mxCell>
        <mxCell id="a08RD-lhNpUK_SpXIpmX-36" value="报表（Dashboard）" style="text;html=1;align=center;verticalAlign=middle;resizable=0;points=[];autosize=1;strokeColor=none;fontSize=18;fontStyle=1;fontColor=#FFFFFF;" parent="a08RD-lhNpUK_SpXIpmX-39" vertex="1">
          <mxGeometry x="190" y="140" width="180" height="30" as="geometry" />
        </mxCell>
        <mxCell id="a08RD-lhNpUK_SpXIpmX-37" value="Data平台/移动端等" style="text;html=1;align=center;verticalAlign=middle;resizable=0;points=[];autosize=1;strokeColor=none;fontSize=18;fontStyle=1;fontColor=#FFFFFF;" parent="a08RD-lhNpUK_SpXIpmX-39" vertex="1">
          <mxGeometry x="80" y="31" width="170" height="30" as="geometry" />
        </mxCell>
        <mxCell id="a08RD-lhNpUK_SpXIpmX-38" value="" style="endArrow=classic;html=1;fontSize=18;fontColor=#000000;exitX=0;exitY=0;exitDx=0;exitDy=0;dashed=1;endFill=1;strokeColor=#FFFFFF;strokeWidth=2;" parent="a08RD-lhNpUK_SpXIpmX-39" source="a08RD-lhNpUK_SpXIpmX-33" edge="1">
          <mxGeometry width="50" height="50" relative="1" as="geometry">
            <mxPoint x="410" y="270" as="sourcePoint" />
            <mxPoint x="10" y="10" as="targetPoint" />
          </mxGeometry>
        </mxCell>
        <mxCell id="a08RD-lhNpUK_SpXIpmX-40" value="BI平台内容生产流程" style="text;html=1;align=left;verticalAlign=middle;resizable=0;points=[];autosize=1;strokeColor=none;fontSize=20;fontColor=#333333;fontStyle=1" parent="1" vertex="1">
          <mxGeometry x="70" y="555" width="200" height="30" as="geometry" />
        </mxCell>
        <mxCell id="adXIvRl_liugmO0jM9nD-8" style="edgeStyle=orthogonalEdgeStyle;rounded=0;orthogonalLoop=1;jettySize=auto;html=1;exitX=0.5;exitY=0;exitDx=0;exitDy=0;entryX=0;entryY=0;entryDx=70;entryDy=80;entryPerimeter=0;" parent="1" source="adXIvRl_liugmO0jM9nD-2" target="adXIvRl_liugmO0jM9nD-6" edge="1">
          <mxGeometry relative="1" as="geometry" />
        </mxCell>
        <mxCell id="adXIvRl_liugmO0jM9nD-2" value="团队看板" style="swimlane;fillColor=#a0522d;strokeColor=#6D1F00;fontColor=#ffffff;swimlaneFillColor=#fafafa;allowArrows=1;collapsible=0;" parent="1" vertex="1">
          <mxGeometry x="840" y="790" width="200" height="140" as="geometry" />
        </mxCell>
        <mxCell id="adXIvRl_liugmO0jM9nD-1" value="看板1" style="rounded=0;whiteSpace=wrap;html=1;" parent="adXIvRl_liugmO0jM9nD-2" vertex="1">
          <mxGeometry x="20" y="37" width="70" height="40" as="geometry" />
        </mxCell>
        <mxCell id="adXIvRl_liugmO0jM9nD-3" value="看板2" style="rounded=0;whiteSpace=wrap;html=1;" parent="adXIvRl_liugmO0jM9nD-2" vertex="1">
          <mxGeometry x="100" y="37" width="70" height="40" as="geometry" />
        </mxCell>
        <mxCell id="adXIvRl_liugmO0jM9nD-4" value="看板3" style="rounded=0;whiteSpace=wrap;html=1;" parent="adXIvRl_liugmO0jM9nD-2" vertex="1">
          <mxGeometry x="20" y="87" width="70" height="40" as="geometry" />
        </mxCell>
        <mxCell id="adXIvRl_liugmO0jM9nD-5" value="看板..." style="rounded=0;whiteSpace=wrap;html=1;" parent="adXIvRl_liugmO0jM9nD-2" vertex="1">
          <mxGeometry x="100" y="87" width="70" height="40" as="geometry" />
        </mxCell>
        <mxCell id="adXIvRl_liugmO0jM9nD-6" value="游戏A" style="shape=cube;whiteSpace=wrap;html=1;boundedLbl=1;backgroundOutline=1;darkOpacity=0.05;darkOpacity2=0.1;strokeColor=#000000;" parent="1" vertex="1">
          <mxGeometry x="870" y="660" width="120" height="80" as="geometry" />
        </mxCell>
        <mxCell id="adXIvRl_liugmO0jM9nD-7" value="游戏B" style="shape=cube;whiteSpace=wrap;html=1;boundedLbl=1;backgroundOutline=1;darkOpacity=0.05;darkOpacity2=0.1;strokeColor=#000000;" parent="1" vertex="1">
          <mxGeometry x="1130" y="660" width="120" height="80" as="geometry" />
        </mxCell>
        <mxCell id="adXIvRl_liugmO0jM9nD-15" style="edgeStyle=orthogonalEdgeStyle;rounded=0;orthogonalLoop=1;jettySize=auto;html=1;exitX=0.5;exitY=0;exitDx=0;exitDy=0;entryX=0;entryY=0;entryDx=70;entryDy=80;entryPerimeter=0;" parent="1" source="adXIvRl_liugmO0jM9nD-9" target="adXIvRl_liugmO0jM9nD-7" edge="1">
          <mxGeometry relative="1" as="geometry" />
        </mxCell>
        <mxCell id="adXIvRl_liugmO0jM9nD-9" value="团队看板" style="swimlane;fillColor=#a0522d;strokeColor=#6D1F00;fontColor=#ffffff;swimlaneFillColor=#fafafa;allowArrows=1;collapsible=0;" parent="1" vertex="1">
          <mxGeometry x="1100" y="790" width="200" height="140" as="geometry" />
        </mxCell>
        <mxCell id="adXIvRl_liugmO0jM9nD-10" value="看板11" style="rounded=0;whiteSpace=wrap;html=1;" parent="adXIvRl_liugmO0jM9nD-9" vertex="1">
          <mxGeometry x="20" y="37" width="70" height="40" as="geometry" />
        </mxCell>
        <mxCell id="adXIvRl_liugmO0jM9nD-11" value="看板22" style="rounded=0;whiteSpace=wrap;html=1;" parent="adXIvRl_liugmO0jM9nD-9" vertex="1">
          <mxGeometry x="100" y="37" width="70" height="40" as="geometry" />
        </mxCell>
        <mxCell id="adXIvRl_liugmO0jM9nD-12" value="看板33" style="rounded=0;whiteSpace=wrap;html=1;" parent="adXIvRl_liugmO0jM9nD-9" vertex="1">
          <mxGeometry x="20" y="87" width="70" height="40" as="geometry" />
        </mxCell>
        <mxCell id="adXIvRl_liugmO0jM9nD-13" value="看板..." style="rounded=0;whiteSpace=wrap;html=1;" parent="adXIvRl_liugmO0jM9nD-9" vertex="1">
          <mxGeometry x="100" y="87" width="70" height="40" as="geometry" />
        </mxCell>
        <mxCell id="adXIvRl_liugmO0jM9nD-16" value="个人看板" style="swimlane;fillColor=#6d8764;strokeColor=#3A5431;fontColor=#ffffff;swimlaneFillColor=#fafafa;allowArrows=1;collapsible=0;" parent="1" vertex="1">
          <mxGeometry x="1362" y="660" width="280" height="270" as="geometry" />
        </mxCell>
        <mxCell id="adXIvRl_liugmO0jM9nD-17" value="看板111" style="rounded=0;whiteSpace=wrap;html=1;" parent="adXIvRl_liugmO0jM9nD-16" vertex="1">
          <mxGeometry x="61" y="90" width="70" height="40" as="geometry" />
        </mxCell>
        <mxCell id="adXIvRl_liugmO0jM9nD-18" value="看板222" style="rounded=0;whiteSpace=wrap;html=1;" parent="adXIvRl_liugmO0jM9nD-16" vertex="1">
          <mxGeometry x="141" y="90" width="70" height="40" as="geometry" />
        </mxCell>
        <mxCell id="adXIvRl_liugmO0jM9nD-19" value="看板333" style="rounded=0;whiteSpace=wrap;html=1;" parent="adXIvRl_liugmO0jM9nD-16" vertex="1">
          <mxGeometry x="61" y="140" width="70" height="40" as="geometry" />
        </mxCell>
        <mxCell id="adXIvRl_liugmO0jM9nD-20" value="看板..." style="rounded=0;whiteSpace=wrap;html=1;" parent="adXIvRl_liugmO0jM9nD-16" vertex="1">
          <mxGeometry x="141" y="140" width="70" height="40" as="geometry" />
        </mxCell>
        <mxCell id="adXIvRl_liugmO0jM9nD-22" value="虚拟的游戏" style="shape=cube;whiteSpace=wrap;html=1;boundedLbl=1;backgroundOutline=1;darkOpacity=0.05;darkOpacity2=0.1;strokeColor=#000000;dashed=1;" parent="1" vertex="1">
          <mxGeometry x="1780" y="660" width="120" height="80" as="geometry" />
        </mxCell>
        <mxCell id="adXIvRl_liugmO0jM9nD-28" style="edgeStyle=orthogonalEdgeStyle;rounded=0;orthogonalLoop=1;jettySize=auto;html=1;exitX=0.5;exitY=0;exitDx=0;exitDy=0;entryX=0;entryY=0;entryDx=70;entryDy=80;entryPerimeter=0;" parent="1" source="adXIvRl_liugmO0jM9nD-23" target="adXIvRl_liugmO0jM9nD-22" edge="1">
          <mxGeometry relative="1" as="geometry" />
        </mxCell>
        <mxCell id="adXIvRl_liugmO0jM9nD-23" value="个人看板" style="swimlane;fillColor=#6d8764;strokeColor=#3A5431;fontColor=#ffffff;swimlaneFillColor=#fafafa;allowArrows=1;collapsible=0;" parent="1" vertex="1">
          <mxGeometry x="1750" y="790" width="200" height="140" as="geometry" />
        </mxCell>
        <mxCell id="adXIvRl_liugmO0jM9nD-24" value="看板111" style="rounded=0;whiteSpace=wrap;html=1;" parent="adXIvRl_liugmO0jM9nD-23" vertex="1">
          <mxGeometry x="20" y="38" width="70" height="40" as="geometry" />
        </mxCell>
        <mxCell id="adXIvRl_liugmO0jM9nD-25" value="看板222" style="rounded=0;whiteSpace=wrap;html=1;" parent="adXIvRl_liugmO0jM9nD-23" vertex="1">
          <mxGeometry x="100" y="38" width="70" height="40" as="geometry" />
        </mxCell>
        <mxCell id="adXIvRl_liugmO0jM9nD-26" value="看板333" style="rounded=0;whiteSpace=wrap;html=1;" parent="adXIvRl_liugmO0jM9nD-23" vertex="1">
          <mxGeometry x="20" y="88" width="70" height="40" as="geometry" />
        </mxCell>
        <mxCell id="adXIvRl_liugmO0jM9nD-27" value="看板..." style="rounded=0;whiteSpace=wrap;html=1;" parent="adXIvRl_liugmO0jM9nD-23" vertex="1">
          <mxGeometry x="100" y="88" width="70" height="40" as="geometry" />
        </mxCell>
        <mxCell id="adXIvRl_liugmO0jM9nD-30" value="看板1 (团队看板)" style="swimlane;fillColor=#647687;strokeColor=#314354;swimlaneFillColor=#fafafa;allowArrows=1;collapsible=0;fontColor=#ffffff;" parent="1" vertex="1">
          <mxGeometry x="840" y="970" width="480" height="180" as="geometry" />
        </mxCell>
        <mxCell id="adXIvRl_liugmO0jM9nD-31" value="图表 f" style="rounded=0;whiteSpace=wrap;html=1;" parent="adXIvRl_liugmO0jM9nD-30" vertex="1">
          <mxGeometry x="20" y="47" width="70" height="40" as="geometry" />
        </mxCell>
        <mxCell id="adXIvRl_liugmO0jM9nD-32" value="图表 g" style="rounded=0;whiteSpace=wrap;html=1;" parent="adXIvRl_liugmO0jM9nD-30" vertex="1">
          <mxGeometry x="20" y="107" width="70" height="40" as="geometry" />
        </mxCell>
        <mxCell id="adXIvRl_liugmO0jM9nD-33" value="图表 m" style="rounded=0;whiteSpace=wrap;html=1;" parent="adXIvRl_liugmO0jM9nD-30" vertex="1">
          <mxGeometry x="270" y="47" width="70" height="40" as="geometry" />
        </mxCell>
        <mxCell id="adXIvRl_liugmO0jM9nD-36" style="edgeStyle=orthogonalEdgeStyle;rounded=0;orthogonalLoop=1;jettySize=auto;html=1;exitX=0;exitY=0;exitDx=0;exitDy=16.5;exitPerimeter=0;entryX=1;entryY=0.5;entryDx=0;entryDy=0;" parent="adXIvRl_liugmO0jM9nD-30" source="adXIvRl_liugmO0jM9nD-35" target="adXIvRl_liugmO0jM9nD-31" edge="1">
          <mxGeometry relative="1" as="geometry" />
        </mxCell>
        <mxCell id="adXIvRl_liugmO0jM9nD-35" value="游戏A" style="shape=cube;whiteSpace=wrap;html=1;boundedLbl=1;backgroundOutline=1;darkOpacity=0.05;darkOpacity2=0.1;strokeColor=#000000;aspect=fixed;size=10;" parent="adXIvRl_liugmO0jM9nD-30" vertex="1">
          <mxGeometry x="140" y="51" width="64.5" height="43" as="geometry" />
        </mxCell>
        <mxCell id="adXIvRl_liugmO0jM9nD-38" style="edgeStyle=orthogonalEdgeStyle;rounded=0;orthogonalLoop=1;jettySize=auto;html=1;exitX=0;exitY=0;exitDx=0;exitDy=16.5;exitPerimeter=0;entryX=1.047;entryY=0.53;entryDx=0;entryDy=0;entryPerimeter=0;" parent="adXIvRl_liugmO0jM9nD-30" source="adXIvRl_liugmO0jM9nD-37" target="adXIvRl_liugmO0jM9nD-32" edge="1">
          <mxGeometry relative="1" as="geometry" />
        </mxCell>
        <mxCell id="adXIvRl_liugmO0jM9nD-37" value="游戏B" style="shape=cube;whiteSpace=wrap;html=1;boundedLbl=1;backgroundOutline=1;darkOpacity=0.05;darkOpacity2=0.1;strokeColor=#000000;aspect=fixed;size=10;" parent="adXIvRl_liugmO0jM9nD-30" vertex="1">
          <mxGeometry x="140" y="111" width="64.5" height="43" as="geometry" />
        </mxCell>
        <mxCell id="adXIvRl_liugmO0jM9nD-40" style="edgeStyle=orthogonalEdgeStyle;rounded=0;orthogonalLoop=1;jettySize=auto;html=1;exitX=0;exitY=0;exitDx=0;exitDy=16.5;exitPerimeter=0;entryX=1;entryY=0.5;entryDx=0;entryDy=0;" parent="adXIvRl_liugmO0jM9nD-30" source="adXIvRl_liugmO0jM9nD-39" target="adXIvRl_liugmO0jM9nD-33" edge="1">
          <mxGeometry relative="1" as="geometry" />
        </mxCell>
        <mxCell id="adXIvRl_liugmO0jM9nD-39" value="游戏C" style="shape=cube;whiteSpace=wrap;html=1;boundedLbl=1;backgroundOutline=1;darkOpacity=0.05;darkOpacity2=0.1;strokeColor=#000000;aspect=fixed;size=10;" parent="adXIvRl_liugmO0jM9nD-30" vertex="1">
          <mxGeometry x="380" y="51" width="64.5" height="43" as="geometry" />
        </mxCell>
        <mxCell id="adXIvRl_liugmO0jM9nD-41" value="图表 n" style="rounded=0;whiteSpace=wrap;html=1;" parent="adXIvRl_liugmO0jM9nD-30" vertex="1">
          <mxGeometry x="270" y="107" width="70" height="40" as="geometry" />
        </mxCell>
        <mxCell id="adXIvRl_liugmO0jM9nD-42" style="edgeStyle=orthogonalEdgeStyle;rounded=0;orthogonalLoop=1;jettySize=auto;html=1;exitX=0;exitY=0;exitDx=0;exitDy=16.5;exitPerimeter=0;entryX=1;entryY=0.5;entryDx=0;entryDy=0;" parent="adXIvRl_liugmO0jM9nD-30" source="adXIvRl_liugmO0jM9nD-43" target="adXIvRl_liugmO0jM9nD-41" edge="1">
          <mxGeometry relative="1" as="geometry" />
        </mxCell>
        <mxCell id="adXIvRl_liugmO0jM9nD-43" value="游戏D" style="shape=cube;whiteSpace=wrap;html=1;boundedLbl=1;backgroundOutline=1;darkOpacity=0.05;darkOpacity2=0.1;strokeColor=#000000;aspect=fixed;size=10;" parent="adXIvRl_liugmO0jM9nD-30" vertex="1">
          <mxGeometry x="380" y="111" width="64.5" height="43" as="geometry" />
        </mxCell>
        <mxCell id="TqbYNtj-dfDxge3eQ0C0-30" value="" style="group" parent="1" vertex="1" connectable="0">
          <mxGeometry x="880" y="1310" width="710" height="270" as="geometry" />
        </mxCell>
        <mxCell id="TqbYNtj-dfDxge3eQ0C0-2" value="团队看板" style="swimlane;fillColor=#a0522d;strokeColor=#6D1F00;fontColor=#ffffff;swimlaneFillColor=#fafafa;allowArrows=1;collapsible=0;" parent="TqbYNtj-dfDxge3eQ0C0-30" vertex="1">
          <mxGeometry y="130" width="200" height="140" as="geometry" />
        </mxCell>
        <mxCell id="TqbYNtj-dfDxge3eQ0C0-3" value="看板1" style="rounded=0;whiteSpace=wrap;html=1;" parent="TqbYNtj-dfDxge3eQ0C0-2" vertex="1">
          <mxGeometry x="20" y="37" width="70" height="40" as="geometry" />
        </mxCell>
        <mxCell id="TqbYNtj-dfDxge3eQ0C0-4" value="看板2" style="rounded=0;whiteSpace=wrap;html=1;" parent="TqbYNtj-dfDxge3eQ0C0-2" vertex="1">
          <mxGeometry x="100" y="37" width="70" height="40" as="geometry" />
        </mxCell>
        <mxCell id="TqbYNtj-dfDxge3eQ0C0-5" value="看板3" style="rounded=0;whiteSpace=wrap;html=1;" parent="TqbYNtj-dfDxge3eQ0C0-2" vertex="1">
          <mxGeometry x="20" y="87" width="70" height="40" as="geometry" />
        </mxCell>
        <mxCell id="TqbYNtj-dfDxge3eQ0C0-6" value="看板..." style="rounded=0;whiteSpace=wrap;html=1;" parent="TqbYNtj-dfDxge3eQ0C0-2" vertex="1">
          <mxGeometry x="100" y="87" width="70" height="40" as="geometry" />
        </mxCell>
        <mxCell id="TqbYNtj-dfDxge3eQ0C0-7" value="游戏A" style="shape=cube;whiteSpace=wrap;html=1;boundedLbl=1;backgroundOutline=1;darkOpacity=0.05;darkOpacity2=0.1;strokeColor=#000000;" parent="TqbYNtj-dfDxge3eQ0C0-30" vertex="1">
          <mxGeometry x="30" width="120" height="80" as="geometry" />
        </mxCell>
        <mxCell id="TqbYNtj-dfDxge3eQ0C0-1" style="edgeStyle=orthogonalEdgeStyle;rounded=0;orthogonalLoop=1;jettySize=auto;html=1;exitX=0.5;exitY=0;exitDx=0;exitDy=0;entryX=0;entryY=0;entryDx=70;entryDy=80;entryPerimeter=0;" parent="TqbYNtj-dfDxge3eQ0C0-30" source="TqbYNtj-dfDxge3eQ0C0-2" target="TqbYNtj-dfDxge3eQ0C0-7" edge="1">
          <mxGeometry relative="1" as="geometry" />
        </mxCell>
        <mxCell id="TqbYNtj-dfDxge3eQ0C0-8" value="游戏B" style="shape=cube;whiteSpace=wrap;html=1;boundedLbl=1;backgroundOutline=1;darkOpacity=0.05;darkOpacity2=0.1;strokeColor=#000000;" parent="TqbYNtj-dfDxge3eQ0C0-30" vertex="1">
          <mxGeometry x="290" width="120" height="80" as="geometry" />
        </mxCell>
        <mxCell id="TqbYNtj-dfDxge3eQ0C0-9" style="edgeStyle=orthogonalEdgeStyle;rounded=0;orthogonalLoop=1;jettySize=auto;html=1;exitX=0.5;exitY=0;exitDx=0;exitDy=0;entryX=0;entryY=0;entryDx=70;entryDy=80;entryPerimeter=0;" parent="TqbYNtj-dfDxge3eQ0C0-30" source="TqbYNtj-dfDxge3eQ0C0-10" target="TqbYNtj-dfDxge3eQ0C0-8" edge="1">
          <mxGeometry relative="1" as="geometry" />
        </mxCell>
        <mxCell id="TqbYNtj-dfDxge3eQ0C0-10" value="团队看板" style="swimlane;fillColor=#a0522d;strokeColor=#6D1F00;fontColor=#ffffff;swimlaneFillColor=#fafafa;allowArrows=1;collapsible=0;" parent="TqbYNtj-dfDxge3eQ0C0-30" vertex="1">
          <mxGeometry x="260" y="130" width="200" height="140" as="geometry" />
        </mxCell>
        <mxCell id="TqbYNtj-dfDxge3eQ0C0-11" value="看板11" style="rounded=0;whiteSpace=wrap;html=1;" parent="TqbYNtj-dfDxge3eQ0C0-10" vertex="1">
          <mxGeometry x="20" y="37" width="70" height="40" as="geometry" />
        </mxCell>
        <mxCell id="TqbYNtj-dfDxge3eQ0C0-12" value="看板22" style="rounded=0;whiteSpace=wrap;html=1;" parent="TqbYNtj-dfDxge3eQ0C0-10" vertex="1">
          <mxGeometry x="100" y="37" width="70" height="40" as="geometry" />
        </mxCell>
        <mxCell id="TqbYNtj-dfDxge3eQ0C0-13" value="看板33" style="rounded=0;whiteSpace=wrap;html=1;" parent="TqbYNtj-dfDxge3eQ0C0-10" vertex="1">
          <mxGeometry x="20" y="87" width="70" height="40" as="geometry" />
        </mxCell>
        <mxCell id="TqbYNtj-dfDxge3eQ0C0-14" value="看板..." style="rounded=0;whiteSpace=wrap;html=1;" parent="TqbYNtj-dfDxge3eQ0C0-10" vertex="1">
          <mxGeometry x="100" y="87" width="70" height="40" as="geometry" />
        </mxCell>
        <mxCell id="TqbYNtj-dfDxge3eQ0C0-23" value="虚拟的游戏" style="shape=cube;whiteSpace=wrap;html=1;boundedLbl=1;backgroundOutline=1;darkOpacity=0.05;darkOpacity2=0.1;strokeColor=#000000;dashed=1;" parent="TqbYNtj-dfDxge3eQ0C0-30" vertex="1">
          <mxGeometry x="540" width="120" height="80" as="geometry" />
        </mxCell>
        <mxCell id="TqbYNtj-dfDxge3eQ0C0-24" style="edgeStyle=orthogonalEdgeStyle;rounded=0;orthogonalLoop=1;jettySize=auto;html=1;exitX=0.5;exitY=0;exitDx=0;exitDy=0;entryX=0;entryY=0;entryDx=70;entryDy=80;entryPerimeter=0;" parent="TqbYNtj-dfDxge3eQ0C0-30" source="TqbYNtj-dfDxge3eQ0C0-25" target="TqbYNtj-dfDxge3eQ0C0-23" edge="1">
          <mxGeometry relative="1" as="geometry" />
        </mxCell>
        <mxCell id="TqbYNtj-dfDxge3eQ0C0-25" value="个人看板" style="swimlane;fillColor=#6d8764;strokeColor=#3A5431;fontColor=#ffffff;swimlaneFillColor=#fafafa;allowArrows=1;collapsible=0;" parent="TqbYNtj-dfDxge3eQ0C0-30" vertex="1">
          <mxGeometry x="510" y="130" width="200" height="140" as="geometry" />
        </mxCell>
        <mxCell id="TqbYNtj-dfDxge3eQ0C0-26" value="看板111" style="rounded=0;whiteSpace=wrap;html=1;" parent="TqbYNtj-dfDxge3eQ0C0-25" vertex="1">
          <mxGeometry x="20" y="38" width="70" height="40" as="geometry" />
        </mxCell>
        <mxCell id="TqbYNtj-dfDxge3eQ0C0-27" value="看板222" style="rounded=0;whiteSpace=wrap;html=1;" parent="TqbYNtj-dfDxge3eQ0C0-25" vertex="1">
          <mxGeometry x="100" y="38" width="70" height="40" as="geometry" />
        </mxCell>
        <mxCell id="TqbYNtj-dfDxge3eQ0C0-28" value="看板333" style="rounded=0;whiteSpace=wrap;html=1;" parent="TqbYNtj-dfDxge3eQ0C0-25" vertex="1">
          <mxGeometry x="20" y="88" width="70" height="40" as="geometry" />
        </mxCell>
        <mxCell id="TqbYNtj-dfDxge3eQ0C0-29" value="共享给我" style="rounded=0;whiteSpace=wrap;html=1;fillColor=#fff2cc;strokeColor=#d6b656;" parent="TqbYNtj-dfDxge3eQ0C0-25" vertex="1">
          <mxGeometry x="100" y="88" width="70" height="40" as="geometry" />
        </mxCell>
        <mxCell id="x80Ir9vQUYlrv0fmWAGd-4" value="" style="group" parent="1" vertex="1" connectable="0">
          <mxGeometry x="1760" y="1400" width="320" height="80" as="geometry" />
        </mxCell>
        <mxCell id="x80Ir9vQUYlrv0fmWAGd-3" style="edgeStyle=orthogonalEdgeStyle;rounded=0;orthogonalLoop=1;jettySize=auto;html=1;entryX=0.012;entryY=0.506;entryDx=0;entryDy=0;entryPerimeter=0;fontColor=#FFFFFF;" parent="x80Ir9vQUYlrv0fmWAGd-4" target="x80Ir9vQUYlrv0fmWAGd-2" edge="1">
          <mxGeometry relative="1" as="geometry">
            <mxPoint x="122" y="40" as="sourcePoint" />
          </mxGeometry>
        </mxCell>
        <mxCell id="x80Ir9vQUYlrv0fmWAGd-1" value="虚拟的游戏" style="shape=cube;whiteSpace=wrap;html=1;boundedLbl=1;backgroundOutline=1;darkOpacity=0.05;darkOpacity2=0.1;strokeColor=#000000;dashed=1;" parent="x80Ir9vQUYlrv0fmWAGd-4" vertex="1">
          <mxGeometry width="120" height="80" as="geometry" />
        </mxCell>
        <mxCell id="x80Ir9vQUYlrv0fmWAGd-2" value="我的看板" style="shape=cube;whiteSpace=wrap;html=1;boundedLbl=1;backgroundOutline=1;darkOpacity=0.05;darkOpacity2=0.1;strokeColor=default;dashed=1;fillColor=#E50113;fontColor=#FFFFFF;" parent="x80Ir9vQUYlrv0fmWAGd-4" vertex="1">
          <mxGeometry x="200" width="120" height="80" as="geometry" />
        </mxCell>
        <mxCell id="YvbV9Jb9ctzx3uwck1Pf-8" value="" style="shape=image;verticalLabelPosition=bottom;labelBackgroundColor=default;verticalAlign=top;aspect=fixed;imageAspect=0;image=https://wiki.jsswsq.com/images/8/83/E-R%E5%9B%BE9.png;" vertex="1" parent="1">
          <mxGeometry x="1770" y="2390" width="520" height="301" as="geometry" />
        </mxCell>
        <mxCell id="YvbV9Jb9ctzx3uwck1Pf-9" value="" style="shape=image;verticalLabelPosition=bottom;labelBackgroundColor=default;verticalAlign=top;aspect=fixed;imageAspect=0;image=https://www.yiibai.com/uploads/article/2018/10/26/094904_16341.png;" vertex="1" parent="1">
          <mxGeometry x="1770" y="2750" width="520" height="335" as="geometry" />
        </mxCell>
        <mxCell id="YvbV9Jb9ctzx3uwck1Pf-95" value="" style="group" vertex="1" connectable="0" parent="1">
          <mxGeometry x="1287.75" y="2930" width="348" height="214" as="geometry" />
        </mxCell>
        <mxCell id="YvbV9Jb9ctzx3uwck1Pf-2" value="科目" style="rounded=0;whiteSpace=wrap;html=1;" vertex="1" parent="YvbV9Jb9ctzx3uwck1Pf-95">
          <mxGeometry x="278" width="70" height="40" as="geometry" />
        </mxCell>
        <mxCell id="YvbV9Jb9ctzx3uwck1Pf-3" value="学生" style="rounded=0;whiteSpace=wrap;html=1;" vertex="1" parent="YvbV9Jb9ctzx3uwck1Pf-95">
          <mxGeometry width="70" height="40" as="geometry" />
        </mxCell>
        <mxCell id="YvbV9Jb9ctzx3uwck1Pf-61" style="edgeStyle=none;rounded=0;orthogonalLoop=1;jettySize=auto;html=1;exitX=1;exitY=0;exitDx=0;exitDy=0;entryX=0;entryY=1;entryDx=0;entryDy=0;fontFamily=Helvetica;fontSize=10;endArrow=none;endFill=0;startArrow=none;" edge="1" parent="YvbV9Jb9ctzx3uwck1Pf-95" source="YvbV9Jb9ctzx3uwck1Pf-64" target="YvbV9Jb9ctzx3uwck1Pf-2">
          <mxGeometry relative="1" as="geometry" />
        </mxCell>
        <mxCell id="YvbV9Jb9ctzx3uwck1Pf-63" value="1" style="edgeLabel;html=1;align=center;verticalAlign=middle;resizable=0;points=[];fontSize=10;fontFamily=Helvetica;" vertex="1" connectable="0" parent="YvbV9Jb9ctzx3uwck1Pf-61">
          <mxGeometry x="0.8084" y="-1" relative="1" as="geometry">
            <mxPoint as="offset" />
          </mxGeometry>
        </mxCell>
        <mxCell id="YvbV9Jb9ctzx3uwck1Pf-6" value="课程" style="rounded=0;whiteSpace=wrap;html=1;" vertex="1" parent="YvbV9Jb9ctzx3uwck1Pf-95">
          <mxGeometry y="164" width="70" height="40" as="geometry" />
        </mxCell>
        <mxCell id="YvbV9Jb9ctzx3uwck1Pf-7" value="老师" style="rounded=0;whiteSpace=wrap;html=1;" vertex="1" parent="YvbV9Jb9ctzx3uwck1Pf-95">
          <mxGeometry x="278" y="163.5" width="70" height="40" as="geometry" />
        </mxCell>
        <mxCell id="YvbV9Jb9ctzx3uwck1Pf-58" style="edgeStyle=none;rounded=0;orthogonalLoop=1;jettySize=auto;html=1;exitX=0.5;exitY=1;exitDx=0;exitDy=0;entryX=0.5;entryY=0;entryDx=0;entryDy=0;fontFamily=Helvetica;fontSize=10;endArrow=none;endFill=0;" edge="1" parent="YvbV9Jb9ctzx3uwck1Pf-95" source="YvbV9Jb9ctzx3uwck1Pf-2" target="YvbV9Jb9ctzx3uwck1Pf-7">
          <mxGeometry relative="1" as="geometry" />
        </mxCell>
        <mxCell id="YvbV9Jb9ctzx3uwck1Pf-59" value="1" style="edgeLabel;html=1;align=center;verticalAlign=middle;resizable=0;points=[];fontSize=10;fontFamily=Helvetica;" vertex="1" connectable="0" parent="YvbV9Jb9ctzx3uwck1Pf-58">
          <mxGeometry x="-0.8412" y="2" relative="1" as="geometry">
            <mxPoint as="offset" />
          </mxGeometry>
        </mxCell>
        <mxCell id="YvbV9Jb9ctzx3uwck1Pf-60" value="m" style="edgeLabel;html=1;align=center;verticalAlign=middle;resizable=0;points=[];fontSize=10;fontFamily=Helvetica;" vertex="1" connectable="0" parent="YvbV9Jb9ctzx3uwck1Pf-58">
          <mxGeometry x="0.7893" relative="1" as="geometry">
            <mxPoint as="offset" />
          </mxGeometry>
        </mxCell>
        <mxCell id="YvbV9Jb9ctzx3uwck1Pf-10" style="edgeStyle=orthogonalEdgeStyle;rounded=0;orthogonalLoop=1;jettySize=auto;html=1;exitX=1;exitY=0.5;exitDx=0;exitDy=0;entryX=0;entryY=0.5;entryDx=0;entryDy=0;endArrow=none;endFill=0;" edge="1" parent="YvbV9Jb9ctzx3uwck1Pf-95" source="YvbV9Jb9ctzx3uwck1Pf-6" target="YvbV9Jb9ctzx3uwck1Pf-7">
          <mxGeometry relative="1" as="geometry" />
        </mxCell>
        <mxCell id="YvbV9Jb9ctzx3uwck1Pf-11" value="n" style="edgeLabel;html=1;align=center;verticalAlign=middle;resizable=0;points=[];" vertex="1" connectable="0" parent="YvbV9Jb9ctzx3uwck1Pf-10">
          <mxGeometry x="-0.719" y="2" relative="1" as="geometry">
            <mxPoint as="offset" />
          </mxGeometry>
        </mxCell>
        <mxCell id="YvbV9Jb9ctzx3uwck1Pf-12" value="m" style="edgeLabel;html=1;align=center;verticalAlign=middle;resizable=0;points=[];" vertex="1" connectable="0" parent="YvbV9Jb9ctzx3uwck1Pf-10">
          <mxGeometry x="0.7253" y="2" relative="1" as="geometry">
            <mxPoint x="6" as="offset" />
          </mxGeometry>
        </mxCell>
        <mxCell id="YvbV9Jb9ctzx3uwck1Pf-13" value="授课" style="rhombus;whiteSpace=wrap;html=1;" vertex="1" parent="YvbV9Jb9ctzx3uwck1Pf-95">
          <mxGeometry x="148" y="154" width="60" height="60" as="geometry" />
        </mxCell>
        <mxCell id="YvbV9Jb9ctzx3uwck1Pf-28" value="参与" style="rhombus;whiteSpace=wrap;html=1;" vertex="1" parent="YvbV9Jb9ctzx3uwck1Pf-95">
          <mxGeometry x="5" y="76" width="60" height="60" as="geometry" />
        </mxCell>
        <mxCell id="YvbV9Jb9ctzx3uwck1Pf-17" style="edgeStyle=orthogonalEdgeStyle;rounded=0;orthogonalLoop=1;jettySize=auto;html=1;exitX=0.5;exitY=1;exitDx=0;exitDy=0;entryX=0.5;entryY=0;entryDx=0;entryDy=0;endArrow=none;endFill=0;startArrow=none;" edge="1" parent="YvbV9Jb9ctzx3uwck1Pf-95" source="YvbV9Jb9ctzx3uwck1Pf-28" target="YvbV9Jb9ctzx3uwck1Pf-6">
          <mxGeometry relative="1" as="geometry" />
        </mxCell>
        <mxCell id="YvbV9Jb9ctzx3uwck1Pf-19" value="n" style="edgeLabel;html=1;align=center;verticalAlign=middle;resizable=0;points=[];" vertex="1" connectable="0" parent="YvbV9Jb9ctzx3uwck1Pf-17">
          <mxGeometry x="0.7179" relative="1" as="geometry">
            <mxPoint y="-10" as="offset" />
          </mxGeometry>
        </mxCell>
        <mxCell id="YvbV9Jb9ctzx3uwck1Pf-29" value="" style="edgeStyle=orthogonalEdgeStyle;rounded=0;orthogonalLoop=1;jettySize=auto;html=1;exitX=0.5;exitY=1;exitDx=0;exitDy=0;entryX=0.5;entryY=0;entryDx=0;entryDy=0;endArrow=none;endFill=0;" edge="1" parent="YvbV9Jb9ctzx3uwck1Pf-95" source="YvbV9Jb9ctzx3uwck1Pf-3" target="YvbV9Jb9ctzx3uwck1Pf-28">
          <mxGeometry relative="1" as="geometry">
            <mxPoint x="35" y="56" as="sourcePoint" />
            <mxPoint x="35" y="176" as="targetPoint" />
          </mxGeometry>
        </mxCell>
        <mxCell id="YvbV9Jb9ctzx3uwck1Pf-30" value="m" style="edgeLabel;html=1;align=center;verticalAlign=middle;resizable=0;points=[];" vertex="1" connectable="0" parent="YvbV9Jb9ctzx3uwck1Pf-29">
          <mxGeometry x="-0.7821" y="1" relative="1" as="geometry">
            <mxPoint x="-1" y="10" as="offset" />
          </mxGeometry>
        </mxCell>
        <mxCell id="YvbV9Jb9ctzx3uwck1Pf-64" value="有" style="rhombus;whiteSpace=wrap;html=1;" vertex="1" parent="YvbV9Jb9ctzx3uwck1Pf-95">
          <mxGeometry x="148" y="70" width="60" height="60" as="geometry" />
        </mxCell>
        <mxCell id="YvbV9Jb9ctzx3uwck1Pf-65" value="" style="edgeStyle=none;rounded=0;orthogonalLoop=1;jettySize=auto;html=1;exitX=1;exitY=0;exitDx=0;exitDy=0;entryX=0;entryY=1;entryDx=0;entryDy=0;fontFamily=Helvetica;fontSize=10;endArrow=none;endFill=0;" edge="1" parent="YvbV9Jb9ctzx3uwck1Pf-95" source="YvbV9Jb9ctzx3uwck1Pf-6" target="YvbV9Jb9ctzx3uwck1Pf-64">
          <mxGeometry relative="1" as="geometry">
            <mxPoint x="90" y="176" as="sourcePoint" />
            <mxPoint x="258" y="30" as="targetPoint" />
          </mxGeometry>
        </mxCell>
        <mxCell id="YvbV9Jb9ctzx3uwck1Pf-66" value="n" style="edgeLabel;html=1;align=center;verticalAlign=middle;resizable=0;points=[];fontSize=10;fontFamily=Helvetica;" vertex="1" connectable="0" parent="YvbV9Jb9ctzx3uwck1Pf-65">
          <mxGeometry x="-0.7825" relative="1" as="geometry">
            <mxPoint as="offset" />
          </mxGeometry>
        </mxCell>
        <mxCell id="YvbV9Jb9ctzx3uwck1Pf-68" value="教学" style="rhombus;whiteSpace=wrap;html=1;" vertex="1" parent="YvbV9Jb9ctzx3uwck1Pf-95">
          <mxGeometry x="283" y="71" width="60" height="60" as="geometry" />
        </mxCell>
        <mxCell id="YvbV9Jb9ctzx3uwck1Pf-98" value="给学校设计一个排课功能" style="text;html=1;strokeColor=none;fillColor=none;align=center;verticalAlign=middle;whiteSpace=wrap;rounded=0;fontFamily=Helvetica;fontSize=10;" vertex="1" parent="1">
          <mxGeometry x="1280.5" y="2200" width="359.5" height="30" as="geometry" />
        </mxCell>
        <mxCell id="YvbV9Jb9ctzx3uwck1Pf-99" value="假设只有一个班级，科目有语文、数学、英语，一个老师只考一门科目" style="text;html=1;strokeColor=none;fillColor=none;align=center;verticalAlign=middle;whiteSpace=wrap;rounded=0;fontFamily=Helvetica;fontSize=10;" vertex="1" parent="1">
          <mxGeometry x="1280.5" y="2240" width="359.5" height="30" as="geometry" />
        </mxCell>
        <mxCell id="YvbV9Jb9ctzx3uwck1Pf-117" value="" style="group" vertex="1" connectable="0" parent="1">
          <mxGeometry x="620" y="3120" width="390" height="40" as="geometry" />
        </mxCell>
        <mxCell id="YvbV9Jb9ctzx3uwck1Pf-101" value="科目" style="rounded=0;whiteSpace=wrap;html=1;" vertex="1" parent="YvbV9Jb9ctzx3uwck1Pf-117">
          <mxGeometry x="110" width="70" height="40" as="geometry" />
        </mxCell>
        <mxCell id="YvbV9Jb9ctzx3uwck1Pf-102" value="学生" style="rounded=0;whiteSpace=wrap;html=1;" vertex="1" parent="YvbV9Jb9ctzx3uwck1Pf-117">
          <mxGeometry width="70" height="40" as="geometry" />
        </mxCell>
        <mxCell id="YvbV9Jb9ctzx3uwck1Pf-103" value="课程" style="rounded=0;whiteSpace=wrap;html=1;" vertex="1" parent="YvbV9Jb9ctzx3uwck1Pf-117">
          <mxGeometry x="220" width="70" height="40" as="geometry" />
        </mxCell>
        <mxCell id="YvbV9Jb9ctzx3uwck1Pf-104" value="老师" style="rounded=0;whiteSpace=wrap;html=1;" vertex="1" parent="YvbV9Jb9ctzx3uwck1Pf-117">
          <mxGeometry x="324" width="70" height="40" as="geometry" />
        </mxCell>
        <mxCell id="YvbV9Jb9ctzx3uwck1Pf-130" value="" style="group" vertex="1" connectable="0" parent="1">
          <mxGeometry x="770" y="2713" width="379.5" height="233" as="geometry" />
        </mxCell>
        <mxCell id="YvbV9Jb9ctzx3uwck1Pf-57" value="" style="group" vertex="1" connectable="0" parent="YvbV9Jb9ctzx3uwck1Pf-130">
          <mxGeometry width="149.5" height="233" as="geometry" />
        </mxCell>
        <mxCell id="YvbV9Jb9ctzx3uwck1Pf-51" value="老师" style="rounded=0;whiteSpace=wrap;html=1;" vertex="1" parent="YvbV9Jb9ctzx3uwck1Pf-57">
          <mxGeometry y="96.5" width="70" height="40" as="geometry" />
        </mxCell>
        <mxCell id="YvbV9Jb9ctzx3uwck1Pf-52" value="教师ID" style="ellipse;whiteSpace=wrap;html=1;" vertex="1" parent="YvbV9Jb9ctzx3uwck1Pf-57">
          <mxGeometry x="100" width="49.5" height="33" as="geometry" />
        </mxCell>
        <mxCell id="YvbV9Jb9ctzx3uwck1Pf-46" style="rounded=0;orthogonalLoop=1;jettySize=auto;html=1;exitX=1;exitY=0.5;exitDx=0;exitDy=0;entryX=0;entryY=0.5;entryDx=0;entryDy=0;fontFamily=Helvetica;fontSize=10;endArrow=none;endFill=0;" edge="1" parent="YvbV9Jb9ctzx3uwck1Pf-57" source="YvbV9Jb9ctzx3uwck1Pf-51" target="YvbV9Jb9ctzx3uwck1Pf-52">
          <mxGeometry relative="1" as="geometry" />
        </mxCell>
        <mxCell id="YvbV9Jb9ctzx3uwck1Pf-53" value="姓名" style="ellipse;whiteSpace=wrap;html=1;" vertex="1" parent="YvbV9Jb9ctzx3uwck1Pf-57">
          <mxGeometry x="100" y="100" width="49.5" height="33" as="geometry" />
        </mxCell>
        <mxCell id="YvbV9Jb9ctzx3uwck1Pf-48" style="edgeStyle=none;rounded=0;orthogonalLoop=1;jettySize=auto;html=1;exitX=1;exitY=0.5;exitDx=0;exitDy=0;entryX=0;entryY=0.5;entryDx=0;entryDy=0;fontFamily=Helvetica;fontSize=10;endArrow=none;endFill=0;" edge="1" parent="YvbV9Jb9ctzx3uwck1Pf-57" source="YvbV9Jb9ctzx3uwck1Pf-51" target="YvbV9Jb9ctzx3uwck1Pf-53">
          <mxGeometry relative="1" as="geometry" />
        </mxCell>
        <mxCell id="YvbV9Jb9ctzx3uwck1Pf-54" value="&lt;font style=&quot;font-size: 10px&quot;&gt;年龄&lt;/font&gt;" style="ellipse;whiteSpace=wrap;html=1;" vertex="1" parent="YvbV9Jb9ctzx3uwck1Pf-57">
          <mxGeometry x="100" y="150" width="49.5" height="33" as="geometry" />
        </mxCell>
        <mxCell id="YvbV9Jb9ctzx3uwck1Pf-49" style="edgeStyle=none;rounded=0;orthogonalLoop=1;jettySize=auto;html=1;exitX=1;exitY=0.5;exitDx=0;exitDy=0;entryX=0;entryY=0.5;entryDx=0;entryDy=0;fontFamily=Helvetica;fontSize=10;endArrow=none;endFill=0;" edge="1" parent="YvbV9Jb9ctzx3uwck1Pf-57" source="YvbV9Jb9ctzx3uwck1Pf-51" target="YvbV9Jb9ctzx3uwck1Pf-54">
          <mxGeometry relative="1" as="geometry" />
        </mxCell>
        <mxCell id="YvbV9Jb9ctzx3uwck1Pf-55" value="&lt;span style=&quot;font-size: 10px&quot;&gt;职称&lt;/span&gt;" style="ellipse;whiteSpace=wrap;html=1;" vertex="1" parent="YvbV9Jb9ctzx3uwck1Pf-57">
          <mxGeometry x="100" y="50" width="49.5" height="33" as="geometry" />
        </mxCell>
        <mxCell id="YvbV9Jb9ctzx3uwck1Pf-47" style="edgeStyle=none;rounded=0;orthogonalLoop=1;jettySize=auto;html=1;exitX=1;exitY=0.5;exitDx=0;exitDy=0;entryX=-0.015;entryY=0.649;entryDx=0;entryDy=0;entryPerimeter=0;fontFamily=Helvetica;fontSize=10;endArrow=none;endFill=0;" edge="1" parent="YvbV9Jb9ctzx3uwck1Pf-57" source="YvbV9Jb9ctzx3uwck1Pf-51" target="YvbV9Jb9ctzx3uwck1Pf-55">
          <mxGeometry relative="1" as="geometry" />
        </mxCell>
        <mxCell id="YvbV9Jb9ctzx3uwck1Pf-56" value="&lt;font style=&quot;font-size: 10px&quot;&gt;...&lt;/font&gt;" style="ellipse;whiteSpace=wrap;html=1;" vertex="1" parent="YvbV9Jb9ctzx3uwck1Pf-57">
          <mxGeometry x="100" y="200" width="49.5" height="33" as="geometry" />
        </mxCell>
        <mxCell id="YvbV9Jb9ctzx3uwck1Pf-50" style="edgeStyle=none;rounded=0;orthogonalLoop=1;jettySize=auto;html=1;exitX=1;exitY=0.5;exitDx=0;exitDy=0;entryX=0;entryY=0.5;entryDx=0;entryDy=0;fontFamily=Helvetica;fontSize=10;endArrow=none;endFill=0;" edge="1" parent="YvbV9Jb9ctzx3uwck1Pf-57" source="YvbV9Jb9ctzx3uwck1Pf-51" target="YvbV9Jb9ctzx3uwck1Pf-56">
          <mxGeometry relative="1" as="geometry" />
        </mxCell>
        <mxCell id="YvbV9Jb9ctzx3uwck1Pf-118" value="" style="group" vertex="1" connectable="0" parent="YvbV9Jb9ctzx3uwck1Pf-130">
          <mxGeometry x="230" width="149.5" height="233" as="geometry" />
        </mxCell>
        <mxCell id="YvbV9Jb9ctzx3uwck1Pf-119" value="课程" style="rounded=0;whiteSpace=wrap;html=1;" vertex="1" parent="YvbV9Jb9ctzx3uwck1Pf-118">
          <mxGeometry y="96.5" width="70" height="40" as="geometry" />
        </mxCell>
        <mxCell id="YvbV9Jb9ctzx3uwck1Pf-120" value="课程ID" style="ellipse;whiteSpace=wrap;html=1;" vertex="1" parent="YvbV9Jb9ctzx3uwck1Pf-118">
          <mxGeometry x="100" width="49.5" height="33" as="geometry" />
        </mxCell>
        <mxCell id="YvbV9Jb9ctzx3uwck1Pf-121" style="rounded=0;orthogonalLoop=1;jettySize=auto;html=1;exitX=1;exitY=0.5;exitDx=0;exitDy=0;entryX=0;entryY=0.5;entryDx=0;entryDy=0;fontFamily=Helvetica;fontSize=10;endArrow=none;endFill=0;" edge="1" parent="YvbV9Jb9ctzx3uwck1Pf-118" source="YvbV9Jb9ctzx3uwck1Pf-119" target="YvbV9Jb9ctzx3uwck1Pf-120">
          <mxGeometry relative="1" as="geometry" />
        </mxCell>
        <mxCell id="YvbV9Jb9ctzx3uwck1Pf-122" value="时长" style="ellipse;whiteSpace=wrap;html=1;" vertex="1" parent="YvbV9Jb9ctzx3uwck1Pf-118">
          <mxGeometry x="100" y="100" width="49.5" height="33" as="geometry" />
        </mxCell>
        <mxCell id="YvbV9Jb9ctzx3uwck1Pf-123" style="edgeStyle=none;rounded=0;orthogonalLoop=1;jettySize=auto;html=1;exitX=1;exitY=0.5;exitDx=0;exitDy=0;entryX=0;entryY=0.5;entryDx=0;entryDy=0;fontFamily=Helvetica;fontSize=10;endArrow=none;endFill=0;" edge="1" parent="YvbV9Jb9ctzx3uwck1Pf-118" source="YvbV9Jb9ctzx3uwck1Pf-119" target="YvbV9Jb9ctzx3uwck1Pf-122">
          <mxGeometry relative="1" as="geometry" />
        </mxCell>
        <mxCell id="YvbV9Jb9ctzx3uwck1Pf-124" value="&lt;font style=&quot;font-size: 10px&quot;&gt;课件&lt;/font&gt;" style="ellipse;whiteSpace=wrap;html=1;" vertex="1" parent="YvbV9Jb9ctzx3uwck1Pf-118">
          <mxGeometry x="100" y="150" width="49.5" height="33" as="geometry" />
        </mxCell>
        <mxCell id="YvbV9Jb9ctzx3uwck1Pf-125" style="edgeStyle=none;rounded=0;orthogonalLoop=1;jettySize=auto;html=1;exitX=1;exitY=0.5;exitDx=0;exitDy=0;entryX=0;entryY=0.5;entryDx=0;entryDy=0;fontFamily=Helvetica;fontSize=10;endArrow=none;endFill=0;" edge="1" parent="YvbV9Jb9ctzx3uwck1Pf-118" source="YvbV9Jb9ctzx3uwck1Pf-119" target="YvbV9Jb9ctzx3uwck1Pf-124">
          <mxGeometry relative="1" as="geometry" />
        </mxCell>
        <mxCell id="YvbV9Jb9ctzx3uwck1Pf-126" value="&lt;span style=&quot;font-size: 10px&quot;&gt;课程名称&lt;/span&gt;" style="ellipse;whiteSpace=wrap;html=1;" vertex="1" parent="YvbV9Jb9ctzx3uwck1Pf-118">
          <mxGeometry x="100" y="50" width="49.5" height="33" as="geometry" />
        </mxCell>
        <mxCell id="YvbV9Jb9ctzx3uwck1Pf-127" style="edgeStyle=none;rounded=0;orthogonalLoop=1;jettySize=auto;html=1;exitX=1;exitY=0.5;exitDx=0;exitDy=0;entryX=-0.015;entryY=0.649;entryDx=0;entryDy=0;entryPerimeter=0;fontFamily=Helvetica;fontSize=10;endArrow=none;endFill=0;" edge="1" parent="YvbV9Jb9ctzx3uwck1Pf-118" source="YvbV9Jb9ctzx3uwck1Pf-119" target="YvbV9Jb9ctzx3uwck1Pf-126">
          <mxGeometry relative="1" as="geometry" />
        </mxCell>
        <mxCell id="YvbV9Jb9ctzx3uwck1Pf-128" value="&lt;font style=&quot;font-size: 10px&quot;&gt;...&lt;/font&gt;" style="ellipse;whiteSpace=wrap;html=1;" vertex="1" parent="YvbV9Jb9ctzx3uwck1Pf-118">
          <mxGeometry x="100" y="200" width="49.5" height="33" as="geometry" />
        </mxCell>
        <mxCell id="YvbV9Jb9ctzx3uwck1Pf-129" style="edgeStyle=none;rounded=0;orthogonalLoop=1;jettySize=auto;html=1;exitX=1;exitY=0.5;exitDx=0;exitDy=0;entryX=0;entryY=0.5;entryDx=0;entryDy=0;fontFamily=Helvetica;fontSize=10;endArrow=none;endFill=0;" edge="1" parent="YvbV9Jb9ctzx3uwck1Pf-118" source="YvbV9Jb9ctzx3uwck1Pf-119" target="YvbV9Jb9ctzx3uwck1Pf-128">
          <mxGeometry relative="1" as="geometry" />
        </mxCell>
        <mxCell id="YvbV9Jb9ctzx3uwck1Pf-96" value="" style="group" vertex="1" connectable="0" parent="1">
          <mxGeometry x="1287.75" y="2419" width="348" height="204" as="geometry" />
        </mxCell>
        <mxCell id="YvbV9Jb9ctzx3uwck1Pf-72" value="科目" style="rounded=0;whiteSpace=wrap;html=1;" vertex="1" parent="YvbV9Jb9ctzx3uwck1Pf-96">
          <mxGeometry x="278" width="70" height="40" as="geometry" />
        </mxCell>
        <mxCell id="YvbV9Jb9ctzx3uwck1Pf-75" value="学生" style="rounded=0;whiteSpace=wrap;html=1;" vertex="1" parent="YvbV9Jb9ctzx3uwck1Pf-96">
          <mxGeometry width="70" height="40" as="geometry" />
        </mxCell>
        <mxCell id="YvbV9Jb9ctzx3uwck1Pf-81" value="课程" style="rounded=0;whiteSpace=wrap;html=1;" vertex="1" parent="YvbV9Jb9ctzx3uwck1Pf-96">
          <mxGeometry y="164" width="70" height="40" as="geometry" />
        </mxCell>
        <mxCell id="YvbV9Jb9ctzx3uwck1Pf-82" value="老师" style="rounded=0;whiteSpace=wrap;html=1;" vertex="1" parent="YvbV9Jb9ctzx3uwck1Pf-96">
          <mxGeometry x="278" y="163.5" width="70" height="40" as="geometry" />
        </mxCell>
        <mxCell id="YvbV9Jb9ctzx3uwck1Pf-69" style="edgeStyle=none;rounded=0;orthogonalLoop=1;jettySize=auto;html=1;exitX=0.5;exitY=1;exitDx=0;exitDy=0;entryX=0.5;entryY=0;entryDx=0;entryDy=0;fontFamily=Helvetica;fontSize=10;endArrow=none;endFill=0;" edge="1" source="YvbV9Jb9ctzx3uwck1Pf-72" target="YvbV9Jb9ctzx3uwck1Pf-82" parent="YvbV9Jb9ctzx3uwck1Pf-96">
          <mxGeometry relative="1" as="geometry" />
        </mxCell>
        <mxCell id="YvbV9Jb9ctzx3uwck1Pf-71" value="m" style="edgeLabel;html=1;align=center;verticalAlign=middle;resizable=0;points=[];fontSize=10;fontFamily=Helvetica;" vertex="1" connectable="0" parent="YvbV9Jb9ctzx3uwck1Pf-69">
          <mxGeometry x="0.7893" relative="1" as="geometry">
            <mxPoint y="-7" as="offset" />
          </mxGeometry>
        </mxCell>
        <mxCell id="YvbV9Jb9ctzx3uwck1Pf-94" value="1" style="edgeLabel;html=1;align=center;verticalAlign=middle;resizable=0;points=[];fontSize=10;fontFamily=Helvetica;" vertex="1" connectable="0" parent="YvbV9Jb9ctzx3uwck1Pf-69">
          <mxGeometry x="-0.7829" y="2" relative="1" as="geometry">
            <mxPoint y="6" as="offset" />
          </mxGeometry>
        </mxCell>
        <mxCell id="YvbV9Jb9ctzx3uwck1Pf-85" value="" style="edgeStyle=orthogonalEdgeStyle;rounded=0;orthogonalLoop=1;jettySize=auto;html=1;exitX=0.5;exitY=1;exitDx=0;exitDy=0;endArrow=none;endFill=0;entryX=0.5;entryY=0;entryDx=0;entryDy=0;" edge="1" source="YvbV9Jb9ctzx3uwck1Pf-75" target="YvbV9Jb9ctzx3uwck1Pf-81" parent="YvbV9Jb9ctzx3uwck1Pf-96">
          <mxGeometry relative="1" as="geometry">
            <mxPoint x="35" y="56" as="sourcePoint" />
            <mxPoint x="35.25" y="140" as="targetPoint" />
          </mxGeometry>
        </mxCell>
        <mxCell id="YvbV9Jb9ctzx3uwck1Pf-86" value="m" style="edgeLabel;html=1;align=center;verticalAlign=middle;resizable=0;points=[];" vertex="1" connectable="0" parent="YvbV9Jb9ctzx3uwck1Pf-85">
          <mxGeometry x="-0.7821" y="1" relative="1" as="geometry">
            <mxPoint x="-1" y="10" as="offset" />
          </mxGeometry>
        </mxCell>
        <mxCell id="YvbV9Jb9ctzx3uwck1Pf-92" value="n" style="edgeLabel;html=1;align=center;verticalAlign=middle;resizable=0;points=[];fontSize=10;fontFamily=Helvetica;" vertex="1" connectable="0" parent="YvbV9Jb9ctzx3uwck1Pf-85">
          <mxGeometry x="0.7481" relative="1" as="geometry">
            <mxPoint y="-10" as="offset" />
          </mxGeometry>
        </mxCell>
        <mxCell id="YvbV9Jb9ctzx3uwck1Pf-76" style="edgeStyle=orthogonalEdgeStyle;rounded=0;orthogonalLoop=1;jettySize=auto;html=1;exitX=1;exitY=0.5;exitDx=0;exitDy=0;entryX=0;entryY=0.5;entryDx=0;entryDy=0;endArrow=none;endFill=0;" edge="1" source="YvbV9Jb9ctzx3uwck1Pf-81" target="YvbV9Jb9ctzx3uwck1Pf-82" parent="YvbV9Jb9ctzx3uwck1Pf-96">
          <mxGeometry relative="1" as="geometry" />
        </mxCell>
        <mxCell id="YvbV9Jb9ctzx3uwck1Pf-77" value="n" style="edgeLabel;html=1;align=center;verticalAlign=middle;resizable=0;points=[];" vertex="1" connectable="0" parent="YvbV9Jb9ctzx3uwck1Pf-76">
          <mxGeometry x="-0.719" y="2" relative="1" as="geometry">
            <mxPoint as="offset" />
          </mxGeometry>
        </mxCell>
        <mxCell id="YvbV9Jb9ctzx3uwck1Pf-78" value="m" style="edgeLabel;html=1;align=center;verticalAlign=middle;resizable=0;points=[];" vertex="1" connectable="0" parent="YvbV9Jb9ctzx3uwck1Pf-76">
          <mxGeometry x="0.7253" y="2" relative="1" as="geometry">
            <mxPoint x="6" as="offset" />
          </mxGeometry>
        </mxCell>
        <mxCell id="YvbV9Jb9ctzx3uwck1Pf-88" value="" style="edgeStyle=none;rounded=0;orthogonalLoop=1;jettySize=auto;html=1;exitX=1;exitY=0;exitDx=0;exitDy=0;entryX=0;entryY=1;entryDx=0;entryDy=0;fontFamily=Helvetica;fontSize=10;endArrow=none;endFill=0;" edge="1" source="YvbV9Jb9ctzx3uwck1Pf-81" target="YvbV9Jb9ctzx3uwck1Pf-72" parent="YvbV9Jb9ctzx3uwck1Pf-96">
          <mxGeometry relative="1" as="geometry">
            <mxPoint x="90" y="176" as="sourcePoint" />
            <mxPoint x="163" y="115.00000000000045" as="targetPoint" />
          </mxGeometry>
        </mxCell>
        <mxCell id="YvbV9Jb9ctzx3uwck1Pf-89" value="n" style="edgeLabel;html=1;align=center;verticalAlign=middle;resizable=0;points=[];fontSize=10;fontFamily=Helvetica;" vertex="1" connectable="0" parent="YvbV9Jb9ctzx3uwck1Pf-88">
          <mxGeometry x="-0.7825" relative="1" as="geometry">
            <mxPoint as="offset" />
          </mxGeometry>
        </mxCell>
        <mxCell id="YvbV9Jb9ctzx3uwck1Pf-93" value="1" style="edgeLabel;html=1;align=center;verticalAlign=middle;resizable=0;points=[];fontSize=10;fontFamily=Helvetica;" vertex="1" connectable="0" parent="YvbV9Jb9ctzx3uwck1Pf-88">
          <mxGeometry x="0.8386" y="-2" relative="1" as="geometry">
            <mxPoint y="-2" as="offset" />
          </mxGeometry>
        </mxCell>
        <mxCell id="YvbV9Jb9ctzx3uwck1Pf-131" value="" style="group" vertex="1" connectable="0" parent="1">
          <mxGeometry x="1420" y="2050" width="350" height="40" as="geometry" />
        </mxCell>
        <mxCell id="YvbV9Jb9ctzx3uwck1Pf-40" value="听老师讲课" style="rounded=1;whiteSpace=wrap;html=1;fontFamily=Helvetica;fontSize=10;fillColor=#647687;fontColor=#ffffff;strokeColor=none;" vertex="1" parent="YvbV9Jb9ctzx3uwck1Pf-131">
          <mxGeometry x="257" width="93" height="40" as="geometry" />
        </mxCell>
        <mxCell id="YvbV9Jb9ctzx3uwck1Pf-133" style="rounded=0;orthogonalLoop=1;jettySize=auto;html=1;exitX=1;exitY=0.5;exitDx=0;exitDy=0;entryX=0;entryY=0.5;entryDx=0;entryDy=0;fontFamily=Helvetica;fontSize=10;endArrow=classic;endFill=1;" edge="1" parent="YvbV9Jb9ctzx3uwck1Pf-131" source="YvbV9Jb9ctzx3uwck1Pf-41" target="YvbV9Jb9ctzx3uwck1Pf-42">
          <mxGeometry relative="1" as="geometry" />
        </mxCell>
        <mxCell id="YvbV9Jb9ctzx3uwck1Pf-41" value="学生" style="rounded=1;whiteSpace=wrap;html=1;fontFamily=Helvetica;fontSize=10;fillColor=#647687;fontColor=#ffffff;strokeColor=none;" vertex="1" parent="YvbV9Jb9ctzx3uwck1Pf-131">
          <mxGeometry width="93" height="40" as="geometry" />
        </mxCell>
        <mxCell id="YvbV9Jb9ctzx3uwck1Pf-134" style="edgeStyle=none;rounded=0;orthogonalLoop=1;jettySize=auto;html=1;exitX=1;exitY=0.5;exitDx=0;exitDy=0;entryX=0;entryY=0.5;entryDx=0;entryDy=0;fontFamily=Helvetica;fontSize=10;startArrow=none;startFill=0;endArrow=classic;endFill=1;" edge="1" parent="YvbV9Jb9ctzx3uwck1Pf-131" source="YvbV9Jb9ctzx3uwck1Pf-42" target="YvbV9Jb9ctzx3uwck1Pf-40">
          <mxGeometry relative="1" as="geometry" />
        </mxCell>
        <mxCell id="YvbV9Jb9ctzx3uwck1Pf-42" value="选择课程" style="rounded=1;whiteSpace=wrap;html=1;fontFamily=Helvetica;fontSize=10;fillColor=#647687;fontColor=#ffffff;strokeColor=none;" vertex="1" parent="YvbV9Jb9ctzx3uwck1Pf-131">
          <mxGeometry x="130" width="93" height="40" as="geometry" />
        </mxCell>
        <mxCell id="YvbV9Jb9ctzx3uwck1Pf-142" value="" style="group" vertex="1" connectable="0" parent="1">
          <mxGeometry x="1420" y="1970" width="350" height="30" as="geometry" />
        </mxCell>
        <mxCell id="YvbV9Jb9ctzx3uwck1Pf-136" value="听老师讲课" style="rounded=1;whiteSpace=wrap;html=1;fontFamily=Helvetica;fontSize=10;fillColor=#9E010D;fontColor=#FFFFFF;strokeColor=none;" vertex="1" parent="YvbV9Jb9ctzx3uwck1Pf-142">
          <mxGeometry x="257" width="93" height="30" as="geometry" />
        </mxCell>
        <mxCell id="YvbV9Jb9ctzx3uwck1Pf-138" value="学生" style="rounded=1;whiteSpace=wrap;html=1;fontFamily=Helvetica;fontSize=10;fillColor=#9E010D;fontColor=#FFFFFF;strokeColor=none;" vertex="1" parent="YvbV9Jb9ctzx3uwck1Pf-142">
          <mxGeometry width="93" height="30" as="geometry" />
        </mxCell>
        <mxCell id="YvbV9Jb9ctzx3uwck1Pf-139" style="edgeStyle=none;rounded=0;orthogonalLoop=1;jettySize=auto;html=1;exitX=1;exitY=0.5;exitDx=0;exitDy=0;entryX=0;entryY=0.5;entryDx=0;entryDy=0;fontFamily=Helvetica;fontSize=10;startArrow=none;startFill=0;endArrow=classic;endFill=1;fontColor=none;labelBackgroundColor=none;noLabel=1;strokeColor=#9E010D;" edge="1" parent="YvbV9Jb9ctzx3uwck1Pf-142" source="YvbV9Jb9ctzx3uwck1Pf-140" target="YvbV9Jb9ctzx3uwck1Pf-136">
          <mxGeometry relative="1" as="geometry" />
        </mxCell>
        <mxCell id="YvbV9Jb9ctzx3uwck1Pf-140" value="选择课程" style="rounded=1;whiteSpace=wrap;html=1;fontFamily=Helvetica;fontSize=10;fillColor=#9E010D;fontColor=#FFFFFF;strokeColor=none;" vertex="1" parent="YvbV9Jb9ctzx3uwck1Pf-142">
          <mxGeometry x="130" width="93" height="30" as="geometry" />
        </mxCell>
        <mxCell id="YvbV9Jb9ctzx3uwck1Pf-137" style="rounded=0;orthogonalLoop=1;jettySize=auto;html=1;exitX=1;exitY=0.5;exitDx=0;exitDy=0;entryX=0;entryY=0.5;entryDx=0;entryDy=0;fontFamily=Helvetica;fontSize=10;endArrow=classic;endFill=1;fontColor=none;labelBackgroundColor=none;noLabel=1;strokeColor=#9E010D;" edge="1" parent="YvbV9Jb9ctzx3uwck1Pf-142" source="YvbV9Jb9ctzx3uwck1Pf-138" target="YvbV9Jb9ctzx3uwck1Pf-140">
          <mxGeometry relative="1" as="geometry" />
        </mxCell>
        <mxCell id="YvbV9Jb9ctzx3uwck1Pf-161" value="" style="group" vertex="1" connectable="0" parent="1">
          <mxGeometry x="1410" y="1780" width="463" height="30" as="geometry" />
        </mxCell>
        <mxCell id="YvbV9Jb9ctzx3uwck1Pf-144" value="商品" style="rounded=1;whiteSpace=wrap;html=1;fontFamily=Helvetica;fontSize=10;fillColor=#FFFFFF;fontColor=#333333;strokeColor=default;" vertex="1" parent="YvbV9Jb9ctzx3uwck1Pf-161">
          <mxGeometry x="370" width="93" height="30" as="geometry" />
        </mxCell>
        <mxCell id="YvbV9Jb9ctzx3uwck1Pf-156" value="" style="edgeStyle=none;rounded=0;orthogonalLoop=1;jettySize=auto;html=1;labelBackgroundColor=none;fontFamily=Helvetica;fontSize=10;fontColor=none;startArrow=none;startFill=0;endArrow=none;endFill=0;strokeColor=#4D4D4D;" edge="1" parent="YvbV9Jb9ctzx3uwck1Pf-161" source="YvbV9Jb9ctzx3uwck1Pf-144" target="YvbV9Jb9ctzx3uwck1Pf-147">
          <mxGeometry relative="1" as="geometry" />
        </mxCell>
        <mxCell id="YvbV9Jb9ctzx3uwck1Pf-158" value="n" style="edgeLabel;html=1;align=center;verticalAlign=middle;resizable=0;points=[];fontSize=10;fontFamily=Helvetica;fontColor=none;" vertex="1" connectable="0" parent="YvbV9Jb9ctzx3uwck1Pf-156">
          <mxGeometry x="0.6205" y="-1" relative="1" as="geometry">
            <mxPoint as="offset" />
          </mxGeometry>
        </mxCell>
        <mxCell id="YvbV9Jb9ctzx3uwck1Pf-159" value="m" style="edgeLabel;html=1;align=center;verticalAlign=middle;resizable=0;points=[];fontSize=10;fontFamily=Helvetica;fontColor=none;" vertex="1" connectable="0" parent="YvbV9Jb9ctzx3uwck1Pf-156">
          <mxGeometry x="-0.4906" y="-1" relative="1" as="geometry">
            <mxPoint as="offset" />
          </mxGeometry>
        </mxCell>
        <mxCell id="YvbV9Jb9ctzx3uwck1Pf-145" value="用户" style="rounded=1;whiteSpace=wrap;html=1;fontFamily=Helvetica;fontSize=10;fillColor=#FFFFFF;fontColor=#333333;strokeColor=default;" vertex="1" parent="YvbV9Jb9ctzx3uwck1Pf-161">
          <mxGeometry width="93" height="30" as="geometry" />
        </mxCell>
        <mxCell id="YvbV9Jb9ctzx3uwck1Pf-147" value="订单" style="rounded=1;whiteSpace=wrap;html=1;fontFamily=Helvetica;fontSize=10;fillColor=#FFFFFF;fontColor=#333333;strokeColor=default;" vertex="1" parent="YvbV9Jb9ctzx3uwck1Pf-161">
          <mxGeometry x="190" width="93" height="30" as="geometry" />
        </mxCell>
        <mxCell id="YvbV9Jb9ctzx3uwck1Pf-149" style="edgeStyle=none;rounded=0;orthogonalLoop=1;jettySize=auto;html=1;exitX=1;exitY=0.5;exitDx=0;exitDy=0;labelBackgroundColor=none;fontFamily=Helvetica;fontSize=10;fontColor=none;startArrow=none;startFill=0;endArrow=none;endFill=0;strokeColor=#4D4D4D;" edge="1" parent="YvbV9Jb9ctzx3uwck1Pf-161" source="YvbV9Jb9ctzx3uwck1Pf-145" target="YvbV9Jb9ctzx3uwck1Pf-147">
          <mxGeometry relative="1" as="geometry" />
        </mxCell>
        <mxCell id="YvbV9Jb9ctzx3uwck1Pf-151" value="1" style="edgeLabel;html=1;align=center;verticalAlign=middle;resizable=0;points=[];fontSize=10;fontFamily=Helvetica;fontColor=none;" vertex="1" connectable="0" parent="YvbV9Jb9ctzx3uwck1Pf-149">
          <mxGeometry x="-0.6987" y="1" relative="1" as="geometry">
            <mxPoint as="offset" />
          </mxGeometry>
        </mxCell>
        <mxCell id="YvbV9Jb9ctzx3uwck1Pf-152" value="n" style="edgeLabel;html=1;align=center;verticalAlign=middle;resizable=0;points=[];fontSize=10;fontFamily=Helvetica;fontColor=none;" vertex="1" connectable="0" parent="YvbV9Jb9ctzx3uwck1Pf-149">
          <mxGeometry x="0.6987" y="-1" relative="1" as="geometry">
            <mxPoint y="-1" as="offset" />
          </mxGeometry>
        </mxCell>
        <mxCell id="YvbV9Jb9ctzx3uwck1Pf-197" value="" style="group" vertex="1" connectable="0" parent="1">
          <mxGeometry x="620" y="3250" width="590" height="50" as="geometry" />
        </mxCell>
        <mxCell id="YvbV9Jb9ctzx3uwck1Pf-163" value="学院" style="rounded=0;whiteSpace=wrap;html=1;" vertex="1" parent="YvbV9Jb9ctzx3uwck1Pf-197">
          <mxGeometry x="250" y="10" width="90" height="40" as="geometry" />
        </mxCell>
        <mxCell id="YvbV9Jb9ctzx3uwck1Pf-170" style="edgeStyle=none;rounded=0;orthogonalLoop=1;jettySize=auto;html=1;exitX=1;exitY=0.5;exitDx=0;exitDy=0;entryX=0;entryY=0.5;entryDx=0;entryDy=0;labelBackgroundColor=none;fontFamily=Helvetica;fontSize=10;fontColor=#333333;startArrow=none;startFill=0;endArrow=none;endFill=0;strokeColor=#4D4D4D;" edge="1" parent="YvbV9Jb9ctzx3uwck1Pf-197" source="YvbV9Jb9ctzx3uwck1Pf-164" target="YvbV9Jb9ctzx3uwck1Pf-163">
          <mxGeometry relative="1" as="geometry" />
        </mxCell>
        <mxCell id="YvbV9Jb9ctzx3uwck1Pf-172" value="1..n" style="edgeLabel;html=1;align=center;verticalAlign=middle;resizable=0;points=[];fontSize=10;fontFamily=Helvetica;fontColor=#333333;" vertex="1" connectable="0" parent="YvbV9Jb9ctzx3uwck1Pf-170">
          <mxGeometry x="-0.817" relative="1" as="geometry">
            <mxPoint y="10" as="offset" />
          </mxGeometry>
        </mxCell>
        <mxCell id="YvbV9Jb9ctzx3uwck1Pf-173" value="1..1" style="edgeLabel;html=1;align=center;verticalAlign=middle;resizable=0;points=[];fontSize=10;fontFamily=Helvetica;fontColor=#333333;" vertex="1" connectable="0" parent="YvbV9Jb9ctzx3uwck1Pf-170">
          <mxGeometry x="-0.817" relative="1" as="geometry">
            <mxPoint x="115" y="10" as="offset" />
          </mxGeometry>
        </mxCell>
        <mxCell id="YvbV9Jb9ctzx3uwck1Pf-164" value="教师" style="rounded=0;whiteSpace=wrap;html=1;" vertex="1" parent="YvbV9Jb9ctzx3uwck1Pf-197">
          <mxGeometry y="10" width="90" height="40" as="geometry" />
        </mxCell>
        <mxCell id="YvbV9Jb9ctzx3uwck1Pf-165" value="专业/系" style="rounded=0;whiteSpace=wrap;html=1;" vertex="1" parent="YvbV9Jb9ctzx3uwck1Pf-197">
          <mxGeometry x="500" y="10" width="90" height="40" as="geometry" />
        </mxCell>
        <mxCell id="YvbV9Jb9ctzx3uwck1Pf-171" style="edgeStyle=none;rounded=0;orthogonalLoop=1;jettySize=auto;html=1;exitX=1;exitY=0.5;exitDx=0;exitDy=0;entryX=0;entryY=0.5;entryDx=0;entryDy=0;labelBackgroundColor=none;fontFamily=Helvetica;fontSize=10;fontColor=#333333;startArrow=none;startFill=0;endArrow=none;endFill=0;strokeColor=#4D4D4D;" edge="1" parent="YvbV9Jb9ctzx3uwck1Pf-197" source="YvbV9Jb9ctzx3uwck1Pf-163" target="YvbV9Jb9ctzx3uwck1Pf-165">
          <mxGeometry relative="1" as="geometry" />
        </mxCell>
        <mxCell id="YvbV9Jb9ctzx3uwck1Pf-174" value="1..1" style="edgeLabel;html=1;align=center;verticalAlign=middle;resizable=0;points=[];fontSize=10;fontFamily=Helvetica;fontColor=#333333;" vertex="1" connectable="0" parent="YvbV9Jb9ctzx3uwck1Pf-171">
          <mxGeometry x="-0.7602" y="-2" relative="1" as="geometry">
            <mxPoint x="1" y="8" as="offset" />
          </mxGeometry>
        </mxCell>
        <mxCell id="YvbV9Jb9ctzx3uwck1Pf-175" value="1..n" style="edgeLabel;html=1;align=center;verticalAlign=middle;resizable=0;points=[];fontSize=10;fontFamily=Helvetica;fontColor=#333333;" vertex="1" connectable="0" parent="YvbV9Jb9ctzx3uwck1Pf-171">
          <mxGeometry x="-0.7602" y="-2" relative="1" as="geometry">
            <mxPoint x="119" y="8" as="offset" />
          </mxGeometry>
        </mxCell>
        <mxCell id="YvbV9Jb9ctzx3uwck1Pf-178" value="有" style="edgeLabel;html=1;align=center;verticalAlign=middle;resizable=0;points=[];fontSize=10;fontFamily=Helvetica;fontColor=#333333;" vertex="1" connectable="0" parent="YvbV9Jb9ctzx3uwck1Pf-171">
          <mxGeometry x="-0.7602" y="-2" relative="1" as="geometry">
            <mxPoint x="49" y="-22" as="offset" />
          </mxGeometry>
        </mxCell>
        <mxCell id="YvbV9Jb9ctzx3uwck1Pf-180" value="有" style="edgeLabel;html=1;align=center;verticalAlign=middle;resizable=0;points=[];fontSize=10;fontFamily=Helvetica;fontColor=#333333;" vertex="1" connectable="0" parent="YvbV9Jb9ctzx3uwck1Pf-171">
          <mxGeometry x="-0.7602" y="-2" relative="1" as="geometry">
            <mxPoint x="-174" y="-22" as="offset" />
          </mxGeometry>
        </mxCell>
        <mxCell id="YvbV9Jb9ctzx3uwck1Pf-176" value="" style="triangle;whiteSpace=wrap;html=1;fontFamily=Helvetica;fontSize=10;fontColor=#333333;strokeColor=none;fillColor=#333333;" vertex="1" parent="YvbV9Jb9ctzx3uwck1Pf-197">
          <mxGeometry x="420" width="15" height="20" as="geometry" />
        </mxCell>
        <mxCell id="YvbV9Jb9ctzx3uwck1Pf-181" value="" style="triangle;whiteSpace=wrap;html=1;fontFamily=Helvetica;fontSize=10;fontColor=#333333;strokeColor=none;fillColor=#333333;rotation=-180;" vertex="1" parent="YvbV9Jb9ctzx3uwck1Pf-197">
          <mxGeometry x="160" width="15" height="20" as="geometry" />
        </mxCell>
        <mxCell id="YvbV9Jb9ctzx3uwck1Pf-198" value="" style="group" vertex="1" connectable="0" parent="1">
          <mxGeometry x="620" y="3380" width="590" height="50" as="geometry" />
        </mxCell>
        <mxCell id="YvbV9Jb9ctzx3uwck1Pf-199" value="专业/系" style="rounded=0;whiteSpace=wrap;html=1;" vertex="1" parent="YvbV9Jb9ctzx3uwck1Pf-198">
          <mxGeometry x="250" y="10" width="90" height="40" as="geometry" />
        </mxCell>
        <mxCell id="YvbV9Jb9ctzx3uwck1Pf-200" style="edgeStyle=none;rounded=0;orthogonalLoop=1;jettySize=auto;html=1;exitX=1;exitY=0.5;exitDx=0;exitDy=0;entryX=0;entryY=0.5;entryDx=0;entryDy=0;labelBackgroundColor=none;fontFamily=Helvetica;fontSize=10;fontColor=#333333;startArrow=none;startFill=0;endArrow=none;endFill=0;strokeColor=#4D4D4D;" edge="1" parent="YvbV9Jb9ctzx3uwck1Pf-198" source="YvbV9Jb9ctzx3uwck1Pf-203" target="YvbV9Jb9ctzx3uwck1Pf-199">
          <mxGeometry relative="1" as="geometry" />
        </mxCell>
        <mxCell id="YvbV9Jb9ctzx3uwck1Pf-201" value="1..n" style="edgeLabel;html=1;align=center;verticalAlign=middle;resizable=0;points=[];fontSize=10;fontFamily=Helvetica;fontColor=#333333;" vertex="1" connectable="0" parent="YvbV9Jb9ctzx3uwck1Pf-200">
          <mxGeometry x="-0.817" relative="1" as="geometry">
            <mxPoint y="10" as="offset" />
          </mxGeometry>
        </mxCell>
        <mxCell id="YvbV9Jb9ctzx3uwck1Pf-202" value="1..1" style="edgeLabel;html=1;align=center;verticalAlign=middle;resizable=0;points=[];fontSize=10;fontFamily=Helvetica;fontColor=#333333;" vertex="1" connectable="0" parent="YvbV9Jb9ctzx3uwck1Pf-200">
          <mxGeometry x="-0.817" relative="1" as="geometry">
            <mxPoint x="115" y="10" as="offset" />
          </mxGeometry>
        </mxCell>
        <mxCell id="YvbV9Jb9ctzx3uwck1Pf-203" value="教师" style="rounded=0;whiteSpace=wrap;html=1;" vertex="1" parent="YvbV9Jb9ctzx3uwck1Pf-198">
          <mxGeometry y="10" width="90" height="40" as="geometry" />
        </mxCell>
        <mxCell id="YvbV9Jb9ctzx3uwck1Pf-204" value="学院" style="rounded=0;whiteSpace=wrap;html=1;" vertex="1" parent="YvbV9Jb9ctzx3uwck1Pf-198">
          <mxGeometry x="500" y="10" width="90" height="40" as="geometry" />
        </mxCell>
        <mxCell id="YvbV9Jb9ctzx3uwck1Pf-205" style="edgeStyle=none;rounded=0;orthogonalLoop=1;jettySize=auto;html=1;exitX=1;exitY=0.5;exitDx=0;exitDy=0;entryX=0;entryY=0.5;entryDx=0;entryDy=0;labelBackgroundColor=none;fontFamily=Helvetica;fontSize=10;fontColor=#333333;startArrow=none;startFill=0;endArrow=none;endFill=0;strokeColor=#4D4D4D;" edge="1" parent="YvbV9Jb9ctzx3uwck1Pf-198" source="YvbV9Jb9ctzx3uwck1Pf-199" target="YvbV9Jb9ctzx3uwck1Pf-204">
          <mxGeometry relative="1" as="geometry" />
        </mxCell>
        <mxCell id="YvbV9Jb9ctzx3uwck1Pf-206" value="1..n" style="edgeLabel;html=1;align=center;verticalAlign=middle;resizable=0;points=[];fontSize=10;fontFamily=Helvetica;fontColor=#333333;" vertex="1" connectable="0" parent="YvbV9Jb9ctzx3uwck1Pf-205">
          <mxGeometry x="-0.7602" y="-2" relative="1" as="geometry">
            <mxPoint x="1" y="8" as="offset" />
          </mxGeometry>
        </mxCell>
        <mxCell id="YvbV9Jb9ctzx3uwck1Pf-207" value="1..1" style="edgeLabel;html=1;align=center;verticalAlign=middle;resizable=0;points=[];fontSize=10;fontFamily=Helvetica;fontColor=#333333;" vertex="1" connectable="0" parent="YvbV9Jb9ctzx3uwck1Pf-205">
          <mxGeometry x="-0.7602" y="-2" relative="1" as="geometry">
            <mxPoint x="119" y="8" as="offset" />
          </mxGeometry>
        </mxCell>
        <mxCell id="YvbV9Jb9ctzx3uwck1Pf-208" value="有" style="edgeLabel;html=1;align=center;verticalAlign=middle;resizable=0;points=[];fontSize=10;fontFamily=Helvetica;fontColor=#333333;" vertex="1" connectable="0" parent="YvbV9Jb9ctzx3uwck1Pf-205">
          <mxGeometry x="-0.7602" y="-2" relative="1" as="geometry">
            <mxPoint x="71" y="-22" as="offset" />
          </mxGeometry>
        </mxCell>
        <mxCell id="YvbV9Jb9ctzx3uwck1Pf-209" value="有" style="edgeLabel;html=1;align=center;verticalAlign=middle;resizable=0;points=[];fontSize=10;fontFamily=Helvetica;fontColor=#333333;" vertex="1" connectable="0" parent="YvbV9Jb9ctzx3uwck1Pf-205">
          <mxGeometry x="-0.7602" y="-2" relative="1" as="geometry">
            <mxPoint x="-177" y="-22" as="offset" />
          </mxGeometry>
        </mxCell>
        <mxCell id="YvbV9Jb9ctzx3uwck1Pf-210" value="" style="triangle;whiteSpace=wrap;html=1;fontFamily=Helvetica;fontSize=10;fontColor=#333333;strokeColor=none;fillColor=#333333;rotation=-180;" vertex="1" parent="YvbV9Jb9ctzx3uwck1Pf-198">
          <mxGeometry x="405" width="15" height="20" as="geometry" />
        </mxCell>
        <mxCell id="YvbV9Jb9ctzx3uwck1Pf-211" value="" style="triangle;whiteSpace=wrap;html=1;fontFamily=Helvetica;fontSize=10;fontColor=#333333;strokeColor=none;fillColor=#333333;rotation=-180;" vertex="1" parent="YvbV9Jb9ctzx3uwck1Pf-198">
          <mxGeometry x="157" width="15" height="20" as="geometry" />
        </mxCell>
      </root>
    </mxGraphModel>
  </diagram>
</mxfile>
